<svg xmlns="http://www.w3.org/2000/svg" viewBox="0 0 353 353">
<path d="M97.86,194.71c-8.53-2.28-13.6-11.05-11.32-19.58l20.64-77.24c2.29-8.53,11.05-13.6,19.58-11.32,8.54,2.28,13.6,11.04,11.32,19.58l-20.65,77.24c-2.28,8.53-11.04,13.6-19.57,11.32h0ZM135.51,216.42c-6.25-6.24-6.26-16.37-.02-22.61l56.5-56.57c6.24-6.25,16.36-6.26,22.61,0,6.25,6.24,6.26,16.36,0,22.61l-56.5,56.57c-6.24,6.25-16.37,6.26-22.61,0h.01ZM254.07,244.59l-77.22,20.74c-8.53,2.29-17.3-2.77-19.6-11.29-2.29-8.53,2.77-17.3,11.3-19.59l77.22-20.74c8.53-2.29,17.3,2.77,19.6,11.29,2.29,8.53-2.77,17.3-11.3,19.59h0Z" fill="#fff"/>
</svg>
